<?xml version="1.0" encoding="UTF-8"?>
<svg width="333.99mm" height="311.05mm" version="1.1" viewBox="0 0 333.99 311.05" xml:space="preserve" xmlns="http://www.w3.org/2000/svg"><defs><clipPath id="al"><path transform="translate(-634.13 -483.34)" d="M 0,881.714 H 946.745 V 0 H 0 Z"/></clipPath><clipPath id="ak"><path transform="translate(-677.79 -467.53)" d="M 0,881.714 H 946.745 V 0 H 0 Z"/></clipPath><clipPath id="aj"><path transform="translate(-747.49 -555.09)" d="M 0,881.714 H 946.745 V 0 H 0 Z"/></clipPath><clipPath id="ai"><path transform="translate(-702.72 -579.49)" d="M 0,881.714 H 946.745 V 0 H 0 Z"/></clipPath><clipPath id="ah"><path transform="translate(-661.6 -503.33)" d="M 0,881.714 H 946.745 V 0 H 0 Z"/></clipPath><clipPath id="ag"><path transform="translate(-752.59 -619.03)" d="M 0,881.714 H 946.745 V 0 H 0 Z"/></clipPath><clipPath id="af"><path transform="translate(-782.91 -599.86)" d="M 0,881.714 H 946.745 V 0 H 0 Z"/></clipPath><clipPath id="ae"><path transform="translate(-744.18 -620.51)" d="M 0,881.714 H 946.745 V 0 H 0 Z"/></clipPath><clipPath id="ad"><path transform="translate(-674.05 -396.26)" d="M 0,881.714 H 946.745 V 0 H 0 Z"/></clipPath><clipPath id="ac"><path transform="translate(-307.14 -457.29)" d="M 0,881.714 H 946.745 V 0 H 0 Z"/></clipPath><clipPath id="ab"><path transform="translate(-585.27 -286.77)" d="M 0,881.714 H 946.745 V 0 H 0 Z"/></clipPath><clipPath id="aa"><path transform="translate(-467.84 -348.67)" d="M 0,881.714 H 946.745 V 0 H 0 Z"/></clipPath><clipPath id="z"><path transform="translate(-391.98 -543.96)" d="M 0,881.714 H 946.745 V 0 H 0 Z"/></clipPath><clipPath id="y"><path transform="translate(-331.75 -459.74)" d="M 0,881.714 H 946.745 V 0 H 0 Z"/></clipPath><clipPath id="x"><path transform="translate(-396.82 -268.95)" d="M 0,881.714 H 946.745 V 0 H 0 Z"/></clipPath><clipPath id="w"><path transform="translate(-358.66 -471.89)" d="M 0,881.714 H 946.745 V 0 H 0 Z"/></clipPath><clipPath id="v"><path transform="translate(-372.16 -433.46)" d="M 0,881.714 H 946.745 V 0 H 0 Z"/></clipPath><clipPath id="u"><path transform="translate(-370.56 -402.41)" d="M 0,881.714 H 946.745 V 0 H 0 Z"/></clipPath><clipPath id="t"><path transform="translate(-331.2 -426.7)" d="M 0,881.714 H 946.745 V 0 H 0 Z"/></clipPath><clipPath id="s"><path transform="translate(-556.89 -593.17)" d="M 0,881.714 H 946.745 V 0 H 0 Z"/></clipPath><clipPath id="r"><path transform="translate(-472.93 -582.62)" d="M 0,881.714 H 946.745 V 0 H 0 Z"/></clipPath><linearGradient id="b" x2="1" gradientTransform="matrix(62.933 15.646 15.646 -62.933 448.44 532.65)" gradientUnits="userSpaceOnUse"><stop stop-color="#e88a0f" offset="0"/><stop stop-color="#fcd006" offset="1"/></linearGradient><linearGradient id="a" x2="1" gradientTransform="matrix(62.313 17.679 17.679 -62.313 534.36 542.89)" gradientUnits="userSpaceOnUse"><stop stop-color="#e88a0f" offset="0"/><stop stop-color="#fcd006" offset="1"/></linearGradient><clipPath id="q"><path transform="translate(-576.88 -485.49)" d="M 0,881.714 H 946.745 V 0 H 0 Z"/></clipPath><clipPath id="p"><path transform="translate(-482.02 -465.33)" d="M 0,881.714 H 946.745 V 0 H 0 Z"/></clipPath><clipPath id="o"><path transform="translate(-540.21 -433.75)" d="M 0,881.714 H 946.745 V 0 H 0 Z"/></clipPath><clipPath id="n"><path transform="translate(-566.97 -466.66)" d="M 0,881.714 H 946.745 V 0 H 0 Z"/></clipPath><clipPath id="m"><path transform="translate(-580.62 -539.27)" d="M 0,881.714 H 946.745 V 0 H 0 Z"/></clipPath><clipPath id="l"><path transform="translate(-498.96 -530.56)" d="M 0,881.714 H 946.745 V 0 H 0 Z"/></clipPath><clipPath id="k"><path transform="translate(-548.21 -505.75)" d="M 0,881.714 H 946.745 V 0 H 0 Z"/></clipPath><clipPath id="j"><path transform="translate(-461.31 -489.65)" d="M 0,881.714 H 946.745 V 0 H 0 Z"/></clipPath><clipPath id="i"><path transform="translate(-610.87 -319.83)" d="M 0,881.714 H 946.745 V 0 H 0 Z"/></clipPath><clipPath id="h"><path transform="translate(-586.55 -293.98)" d="M 0,881.714 H 946.745 V 0 H 0 Z"/></clipPath><clipPath id="g"><path transform="translate(-568.08 -305.31)" d="M 0,881.714 H 946.745 V 0 H 0 Z"/></clipPath><clipPath id="f"><path transform="translate(-544.4 -198.41)" d="M 0,881.714 H 946.745 V 0 H 0 Z"/></clipPath><clipPath id="e"><path transform="translate(-513.25 -294.03)" d="M 0,881.714 H 946.745 V 0 H 0 Z"/></clipPath><clipPath id="d"><path transform="translate(-530.84 -196.35)" d="M 0,881.714 H 946.745 V 0 H 0 Z"/></clipPath><clipPath id="c"><path transform="translate(-609.54 -150.32)" d="M 0,881.714 H 946.745 V 0 H 0 Z"/></clipPath><clipPath id="bv"><path transform="translate(-609.5 -110.64)" d="M 0,881.714 H 946.745 V 0 H 0 Z"/></clipPath><clipPath id="bu"><path transform="translate(-600.82 -193.57)" d="M 0,881.714 H 946.745 V 0 H 0 Z"/></clipPath><clipPath id="bt"><path transform="translate(-538.74 -171.57)" d="M 0,881.714 H 946.745 V 0 H 0 Z"/></clipPath><clipPath id="bs"><path transform="translate(-556.39 -154.04)" d="M 0,881.714 H 946.745 V 0 H 0 Z"/></clipPath><clipPath id="br"><path transform="translate(-580.67 -152.03)" d="M 0,881.714 H 946.745 V 0 H 0 Z"/></clipPath><clipPath id="bq"><path transform="translate(-459.32 -140.22)" d="M 0,881.714 H 946.745 V 0 H 0 Z"/></clipPath><clipPath id="bp"><path transform="translate(-458.34 -97.002)" d="M 0,881.714 H 946.745 V 0 H 0 Z"/></clipPath><clipPath id="bo"><path transform="translate(-470.07 -187.57)" d="M 0,881.714 H 946.745 V 0 H 0 Z"/></clipPath><clipPath id="bn"><path transform="translate(-536.98 -161.54)" d="M 0,881.714 H 946.745 V 0 H 0 Z"/></clipPath><clipPath id="bm"><path transform="translate(-517.3 -142.9)" d="M 0,881.714 H 946.745 V 0 H 0 Z"/></clipPath><clipPath id="bl"><path transform="translate(-490.8 -141.33)" d="M 0,881.714 H 946.745 V 0 H 0 Z"/></clipPath><clipPath id="bk"><path transform="translate(-595.99 -238.83)" d="M 0,881.714 H 946.745 V 0 H 0 Z"/></clipPath><clipPath id="bj"><path transform="translate(-512.48 -234.87)" d="M 0,881.714 H 946.745 V 0 H 0 Z"/></clipPath><clipPath id="bi"><path transform="translate(-532.03 -282.48)" d="M 0,881.714 H 946.745 V 0 H 0 Z"/></clipPath><clipPath id="bh"><path transform="translate(-551.55 -307.5)" d="M 0,881.714 H 946.745 V 0 H 0 Z"/></clipPath><clipPath id="bg"><path transform="translate(-329.59 -348.63)" d="M 0,881.714 H 946.745 V 0 H 0 Z"/></clipPath><clipPath id="bf"><path transform="translate(-270.45 -275.17)" d="M 0,881.714 H 946.745 V 0 H 0 Z"/></clipPath><clipPath id="be"><path transform="translate(-321.44 -275.48)" d="M 0,881.714 H 946.745 V 0 H 0 Z"/></clipPath><clipPath id="bd"><path transform="translate(-313.17 -225.77)" d="M 0,881.714 H 946.745 V 0 H 0 Z"/></clipPath><clipPath id="bc"><path transform="translate(-313.45 -275.45)" d="M 0,881.714 H 946.745 V 0 H 0 Z"/></clipPath><clipPath id="bb"><path transform="translate(-320.56 -362.03)" d="M 0,881.714 H 946.745 V 0 H 0 Z"/></clipPath><clipPath id="ba"><path transform="translate(-285.83 -222.3)" d="M 0,881.714 H 946.745 V 0 H 0 Z"/></clipPath><clipPath id="az"><path transform="translate(-776.64 -600.32)" d="M 0,881.714 H 946.745 V 0 H 0 Z"/></clipPath><clipPath id="ay"><path transform="translate(-303.69 -396.04)" d="M 0,881.714 H 946.745 V 0 H 0 Z"/></clipPath><clipPath id="ax"><path transform="translate(-326.96 -422.95)" d="M 0,881.714 H 946.745 V 0 H 0 Z"/></clipPath><clipPath id="aw"><path transform="translate(-290.43 -372.41)" d="M 0,881.714 H 946.745 V 0 H 0 Z"/></clipPath><clipPath id="av"><path transform="translate(-627.13 -747.04)" d="M 0,881.714 H 946.745 V 0 H 0 Z"/></clipPath><clipPath id="au"><path transform="translate(-692.9 -659.46)" d="M 0,881.714 H 946.745 V 0 H 0 Z"/></clipPath><clipPath id="at"><path transform="translate(-656.24 -718.02)" d="M 0,881.714 H 946.745 V 0 H 0 Z"/></clipPath><clipPath id="as"><path transform="translate(-640.06 -738.3)" d="M 0,881.714 H 946.745 V 0 H 0 Z"/></clipPath><clipPath id="ar"><path transform="translate(-673.52 -696.35)" d="M 0,881.714 H 946.745 V 0 H 0 Z"/></clipPath><clipPath id="aq"><path transform="translate(-662.83 -709.75)" d="M 0,881.714 H 946.745 V 0 H 0 Z"/></clipPath><clipPath id="ap"><path transform="translate(-680.95 -687.03)" d="M 0,881.714 H 946.745 V 0 H 0 Z"/></clipPath><clipPath id="ao"><path transform="translate(-645.87 -731.01)" d="M 0,881.714 H 946.745 V 0 H 0 Z"/></clipPath><clipPath id="an"><path transform="translate(-706.51 -623.65)" d="M 0,881.714 H 946.745 V 0 H 0 Z"/></clipPath><clipPath id="am"><path transform="translate(-803.36 -543.36)" d="M 0,881.714 H 946.745 V 0 H 0 Z"/></clipPath></defs><g transform="matrix(.26458 0 0 .26458 3.8544e-6 0)"><g transform="translate(-1.5748e-6)"><path transform="matrix(1.3333 0 0 -1.3333 845.5 531.16)" d="m0 0c6.885 6.885 16.64 17.214 19.509 23.525l32.897-25.629c-4.782-10.519-18.361-25.246-29.263-36.148z" clip-path="url(#al)" fill="#aab0c2"/><path transform="matrix(1.3333 0 0 -1.3333 903.72 552.24)" d="m0 0c-2.468-4.608-8.824-4.721-13.327-3.74-10.444 1.907-27.231 15.435-22.204 27.22 1.049 1.553 2.212 2.756 3.424 4.137-0.732-2.099-2.246-4.04-2.36-6.263-0.167-11.349 24.519-29.715 34.467-21.354" clip-path="url(#ak)" fill="#778293"/><path transform="matrix(1.3333 0 0 -1.3333 996.65 435.5)" d="m0 0c5.128-5.684 8.21-5.281 1.17-21.362s-30.616-40.366-44.273-49.318c-10.337-6.776-27.869-7.823-41.745 5.376-13.876 13.2-17.032 21.706-11.585 30.5s31.461 48.015 35.451 55.727c3.99 7.711 16.679 12.844 24.532 8.055 7.853-4.79 36.45-28.978 36.45-28.978" clip-path="url(#aj)" fill="#778293"/><path transform="matrix(1.3333 0 0 -1.3333 936.95 402.97)" d="m0 0c4.059 5.807 16.435 4.164 27.642-3.669s17.001-18.891 12.943-24.698c-4.059-5.807-16.435-4.165-27.642 3.669-11.207 7.833-17.002 18.891-12.943 24.698" clip-path="url(#ai)" fill="#080604"/><path transform="matrix(1.3333 0 0 -1.3333 882.14 504.52)" d="m0 0c-2.667 5.055-2.279 10.497 0.866 12.156 3.145 1.66 7.856-1.093 10.523-6.147 2.666-5.055 2.279-10.498-0.866-12.157s-7.856 1.094-10.523 6.148" clip-path="url(#ah)" fill="#566576"/><path transform="matrix(1.3333 0 0 -1.3333 1003.5 350.24)" d="m0 0c-0.526-3.873-4.351-9.228-10.663-12.097-6.311-2.869-15.875-21.804-13.771-29.263 2.104-7.46 3.826-14.728 15.492-13.963 11.667 0.766 23.526 10.329 23.526 10.902 0 0.574 6.311 27.925 6.311 27.925l-15.683 15.301z" clip-path="url(#ag)" fill="#080604"/><path transform="matrix(1.3333 0 0 -1.3333 1043.9 375.81)" d="m0 0-20.513 19.365-9.802-0.191 17.261-18.026 10.329-6.886z" clip-path="url(#af)" fill="#aab0c2"/><path transform="matrix(1.3333 0 0 -1.3333 992.24 348.27)" d="m0 0-13.341 18.744c-23.333-3.061-38.634-33.662-31.366-48.963 8.421-17.73 24.864-31.367 38.826-34.619 0 0-11.667 4.399-13.58 19.7s9.515 35.957 19.461 45.138" clip-path="url(#ae)" fill="#566576"/><path transform="matrix(1.3333 0 0 -1.3333 1035.5 375.19)" d="m0 0c-1.562-26.967-24.752-48.25-43.504-36.039-15.389 10.02-11.329 34.233 14.533 51.058" clip-path="url(#az)" fill="none" stroke="#778293" stroke-miterlimit="10" stroke-width="12.637"/></g><g><path transform="matrix(1.3333 0 0 -1.3333 898.73 647.27)" d="m0 0c-31.608-8.233-156.93-44.705-156.93-44.705s-24.778-5.69-33.864-8.986l-2.541-1.521-0.413 0.386c-41.877 122.44-91.219 231.34-91.219 231.34l-0.075 0.048 1.393 1.991c61.93 20.007 152.71 35.314 197.04 29.745l4.729-0.432s57.617-108.69 81.877-207.86" clip-path="url(#ad)" fill="#fab10b"/><path transform="matrix(1.3333 0 0 -1.3333 409.52 565.9)" d="m0 0 51.123 71.371 30.74 44.163 0.075-0.048s49.343-108.89 91.22-231.34l0.413-0.386s0.899 0.7 0.471-2.811l-97.878-105.46c-2.312 6.339-74.65 221.07-76.164 224.51" clip-path="url(#ac)" fill="#fcd006"/><path transform="matrix(1.3333 0 0 -1.3333 780.36 793.26)" d="m0 0c28.722 28.091 81.086 96.2 88.93 109.02 0.091 0.15-0.107 0.305-0.154 0.473-31.609-8.233-60.74-16.144-95.491-25.963l-96.141-27.735c7e-3 0.05 0.024 0.116 0.03 0.164l-0.191-0.213-0.971-0.298c0.057-0.151 0.184-0.279 0.348-0.397l-98.499-109.14c47.227 11.007 167.09 43.993 202.14 54.09" clip-path="url(#ab)" fill="#95461d"/><path transform="matrix(1.3333 0 0 -1.3333 623.79 710.72)" d="m0 0c1.333-4.485 0.151-8.793-2.64-9.622s-6.133 2.135-7.465 6.62c-1.333 4.484-0.151 8.792 2.64 9.621 2.79 0.83 6.133-2.134 7.465-6.619" clip-path="url(#aa)" fill="#e88a0f"/><path transform="matrix(1.3333 0 0 -1.3333 522.64 450.33)" d="m0 0c1.332-4.485 0.15-8.793-2.64-9.622-2.791-0.829-6.133 2.135-7.466 6.62-1.332 4.485-0.15 8.793 2.641 9.622 2.79 0.829 6.132-2.135 7.465-6.62" clip-path="url(#z)" fill="#e88a0f"/><path transform="matrix(1.3333 0 0 -1.3333 442.33 562.63)" d="m0 0c1.333-4.485 0.15-8.793-2.64-9.622-2.791-0.829-6.133 2.135-7.466 6.62-1.332 4.485-0.15 8.793 2.641 9.622 2.79 0.829 6.133-2.135 7.465-6.62" clip-path="url(#y)" fill="#e88a0f"/><path transform="matrix(1.3333 0 0 -1.3333 529.09 817.02)" d="m0 0c1.332-4.485 0.15-8.793-2.64-9.622-2.791-0.829-6.133 2.135-7.466 6.62-1.332 4.485-0.15 8.793 2.641 9.622 2.79 0.828 6.133-2.135 7.465-6.62" clip-path="url(#x)" fill="#e88a0f"/><path transform="matrix(1.3333 0 0 -1.3333 742.52 384.73)" d="m0 0c19.727 0 38.297-19.491 41.457-43.531 2.772-21.154-7.253-38.784-23.106-42.742 3.935 2.757-6.102 7.139-6.102 7.139 0.661 2.967 12.336 10.719 11.9 14.139-1.901 14.313-13.78 25.911-26.535 25.908-12.756-3e-3 -21.565-11.624-19.664-25.937l-0.337-0.196c-3.862 6.378-6.564 13.779-7.6 21.661-3.168 24.065 10.26 43.559 29.987 43.559" clip-path="url(#s)" fill="#fff"/><path transform="matrix(1.3333 0 0 -1.3333 630.58 398.8)" d="m0 0c19.752-0.659 37.713-20.777 40.106-44.957 1.857-18.823-6.242-34.554-19.255-40.266 2.489 4.446-8.424 2.597-9.008 8.375-1.413 14.471-1.219 35.601-14.566 35.986-12.83 0.351-22.277-10.158-21.704-23.795-3.699 6.552-6.181 14.096-6.985 22.09-2.409 24.148 11.66 43.226 31.412 42.567" clip-path="url(#r)" fill="#fff"/><path transform="matrix(1.3333 0 0 -1.3333 0 1175.6)" d="m442.39 556.98c4.998 11.702 15.118 19.317 27.56 18.953 19.212-0.564 36.613-19.855 38.854-43.108 1.291-13.445-2.762-25.261-10.124-32.724 10.261 7.165 16.287 21.242 14.697 37.654-2.354 24.213-20.429 44.319-40.361 44.93-0.309 9e-3 -0.618 0.014-0.925 0.014-14.492 1e-3 -25.829-10.51-29.701-25.719" fill="url(#b)"/><path transform="matrix(1.3333 0 0 -1.3333 0 1175.6)" d="m557.27 593.66c-14.921-0.04-26.296-11.054-29.741-26.702 4.611 11.858 14.466 19.805 26.898 19.854 19.197 0.078 37.19-18.616 40.178-41.774 1.724-13.39-1.94-25.329-9.047-33.031 10.011 7.5 15.571 21.765 13.453 38.109-3.128 24.079-21.776 43.543-41.66 43.544h-0.081" fill="url(#a)"/><path transform="matrix(1.3333 0 0 -1.3333 769.17 528.3)" d="m0 0 0.01-0.023c-0.076-6.301-5.631-18.282-5.631-18.282s-0.399-0.095-1.11-0.245c-0.237-0.051-0.474-0.101-0.776-0.18-5.829-1.349-28.712-6.069-37.602-6.468-10.689-0.489-32.064 11.816-32.064 11.816l4.565 0.808z" clip-path="url(#q)" fill="#fff"/><path transform="matrix(1.3333 0 0 -1.3333 642.69 555.18)" d="M 0,0 C 5.669,8.434 16.658,16.401 27.23,15.17 18.265,9.582 10.2,3.223 0,0" clip-path="url(#p)" fill="#95461d"/><path transform="matrix(1.3333 0 0 -1.3333 720.28 597.28)" d="M 0,0 C 9.096,-0.74 15.736,-0.126 24.303,1.961 19.735,-6.492 5.93,-7.632 0,0" clip-path="url(#o)" fill="#95461d"/><path transform="matrix(1.3333 0 0 -1.3333 755.97 553.4)" d="m0 0c-8.155-1.863-26.096-5.603-33.568-6.043-11.084-0.662-33.604 11.577-33.604 11.577l-6.023-1.225c0.544-11.807 30.212-36.927 63.677-24.5 15.726 4.625 17.155 28.443 17.155 28.443-1.104-4.219-4.854-6.838-7.637-8.252" clip-path="url(#n)" fill="#080604"/><path transform="matrix(1.3333 0 0 -1.3333 774.16 456.59)" d="m0 0c-3.763 15.268-16.97 25.143-29.498 22.055s-19.634-17.968-15.871-33.237c0.268-1.086 0.588-2.141 0.948-3.17 4.947-7.74 11.852-14.479 20.928-18.547l-0.733-0.553c2.745-0.513 5.566-0.472 8.355 0.215 12.528 3.088 19.634 17.969 15.871 33.237" clip-path="url(#m)" fill="#080604"/><path transform="matrix(1.3333 0 0 -1.3333 665.28 468.2)" d="m0 0c-4.511 15.714-19.397 25.229-33.249 21.253-13.128-3.769-20.608-18.302-17.515-33.187 5.393-10.205 13.945-20.338 26.438-24.594 2.461-0.104 4.953 0.169 7.413 0.875 13.852 3.977 21.424 19.939 16.913 35.653" clip-path="url(#l)" fill="#080604"/><path transform="matrix(1.3333 0 0 -1.3333 730.95 501.29)" d="m0 0s36.179 12.759 45.6 4.323l-28.18-13.801z" clip-path="url(#k)" fill="#fab10b"/><path transform="matrix(1.3333 0 0 -1.3333 615.07 522.75)" d="m0 0s34.186 17.427 44.586 10.285l-26.134-17.411z" clip-path="url(#j)" fill="#fab10b"/></g><g><path transform="matrix(1.3333 0 0 -1.3333 814.5 749.18)" d="m0 0-3.581 13.839c-1.877 7.255-9.114 11.763-16.453 10.247l-103.38-21.716c-5.326-1.1-10.083-4.066-13.415-8.364l-13.936-17.979 7.429-25.196 22.387 17.452 111.34 26.722z" clip-path="url(#i)" fill="#080604"/><path transform="matrix(1.3333 0 0 -1.3333 782.06 783.65)" d="m0 0 24.327 25.849-125-26.37-18.338-22.798z" clip-path="url(#h)" fill="#566576"/><path transform="matrix(1.3333 0 0 -1.3333 757.44 768.54)" d="m0 0 25.975 5.296-4.786-87.587-24.431-0.182-9.526 22.227z" clip-path="url(#g)" fill="#aab0c2"/><path transform="matrix(1.3333 0 0 -1.3333 725.86 911.07)" d="m0 0 2.473 98.012 21.281 8.881-3.317-82.47z" clip-path="url(#f)" fill="#080604"/><path transform="matrix(1.3333 0 0 -1.3333 684.34 783.58)" d="m0 0-24.867-5.2-2.849-60.975 24.308-2.453 11.552 21.244z" clip-path="url(#e)" fill="#aab0c2"/><path transform="matrix(1.3333 0 0 -1.3333 707.78 913.81)" d="m0 0 3.64 100.32-21.226-2.642-3.408-68.628z" clip-path="url(#d)" fill="#080604"/><path transform="matrix(1.3333 0 0 -1.3333 812.72 975.19)" d="m0 0c17.668-16.03 26.561-27.688 24.077-36.91-2.485-9.223-22.809-10.811-42.986-6.376-22.217 4.882-51.636 18.226-54.392 20.859-2.756 2.632-3.382 6.392 1.859 12.982 5.24 6.59 30.518 9.325 30.518 9.325l21.76 15.056 15.224-5.582z" clip-path="url(#c)" fill="#080604"/><path transform="matrix(1.3333 0 0 -1.3333 812.67 1028.1)" d="m0 0c-6.17-0.141-12.627 0.535-18.606 2.112-16.181 4.269-39.715 12.764-56.47 21.573 0.34 1.302 1.029 2.776 2.148 4.458 16.403-8.656 39.62-17.037 55.584-21.248 15.721-4.147 32.302-1.309 38.65 3.699 0.769 0.606 1.357 1.221 1.783 1.841 0.812-1.969 1.283-3.84 1.402-5.623-0.042-0.034-0.079-0.068-0.122-0.101-5.238-4.132-14.43-6.483-24.369-6.711" clip-path="url(#bv)" fill="#fff"/><path transform="matrix(1.3333 0 0 -1.3333 801.09 917.52)" d="m0 0 8.508-43.15c-3.057 1.523-6.094 3.056-8.932 4.546-12.169 6.399-20.027-4.04-25.858-8.762-1.741 31.22-3.842 81.665-3.842 81.665l0.424 1.736c0.498-0.084 0.877-0.182 1.166-0.252-9e-3 -0.03 0.03-9e-3 0.03-9e-3 3.942-1.952 8.601-2.06 12.617 0.101 1.481 0.798 2.758 1.837 3.781 3.066 2.436-0.323 6.296-5.814 6.296-5.814z" clip-path="url(#bu)" fill="#aab0c2"/><path transform="matrix(1.3333 0 0 -1.3333 718.32 946.86)" d="m0 0c0.619 4.456 1.293 3.774 1.989 8.321 0.968 6.329 1.989 12.561 2.997 18.257 1.937 10.697 3.932 19.463 5.714 23.113 2.145 4.423 5.562 6.764 9.093 7.91 4.905 1.584 10.056 0.936 12.587 0.438l-0.424-1.736s2.101-50.445 3.842-81.664c-1.005-0.843-1.966-1.486-2.876-1.85-6.071-2.362-33.65-7.876-33.65-7.876s-1.705 0.692-3.851-0.413c0.134 1.153 1.199 10.199 2.77 22.182 0.559 4.148 1.147 8.662 1.809 13.318" clip-path="url(#bt)" fill="#778293"/><path transform="matrix(1.3333 0 0 -1.3333 741.85 970.24)" d="m0 0c0.519-4.156-1.157-7.788-3.743-8.11-2.586-0.323-5.103 2.784-5.622 6.94-0.519 4.157 1.156 7.788 3.742 8.111 2.587 0.323 5.104-2.785 5.623-6.941" clip-path="url(#bs)" fill="#aab0c2"/><path transform="matrix(1.3333 0 0 -1.3333 774.23 972.92)" d="m0 0s16.562 27.372 28.87-1.707c0 0-6.56 4.065-13.297 5.698-5.039 1.222-5.82 1.065-15.573-3.991" clip-path="url(#br)" fill="#566576"/><path transform="matrix(1.3333 0 0 -1.3333 612.43 988.66)" d="m0 0c-19.655-17.003-29.641-29.469-27.173-39.577s24.562-12.361 46.65-8.052c24.322 4.745 56.705 18.519 59.775 21.315 3.069 2.796 3.847 6.874-1.69 14.186-5.538 7.312-32.996 10.943-32.996 10.943l-23.31 16.957-16.724-5.687z" clip-path="url(#bq)" fill="#080604"/><path transform="matrix(1.3333 0 0 -1.3333 611.12 1046.3)" d="m0 0c6.716-0.313 13.766 0.257 20.317 1.821 17.733 4.232 43.582 12.876 62.057 22.038-0.337 1.427-1.05 3.049-2.225 4.91-18.087-9.004-43.588-17.533-61.083-21.707-17.227-4.111-35.213-0.593-41.997 5.024-0.821 0.681-1.446 1.366-1.894 2.052-0.935-2.124-1.496-4.149-1.671-6.088 0.044-0.038 0.084-0.076 0.129-0.113 5.598-4.636 15.548-7.433 26.367-7.937" clip-path="url(#bp)" fill="#fff"/><path transform="matrix(1.3333 0 0 -1.3333 626.76 925.52)" d="m0 0-10.514-47.243c3.368 1.579 6.716 3.171 9.845 4.72 13.417 6.656 21.706-4.915 27.935-10.208 2.7 33.955 6.425 89.308 6.425 89.308l-0.417 1.901c-0.544-0.078-0.96-0.175-1.277-0.244 0.01-0.033-0.032-9e-3 -0.032-9e-3 -4.344-2.024-9.42-2.021-13.738 0.436-1.593 0.907-2.956 2.071-4.039 3.436-2.662-0.289-7.007-6.169-7.007-6.169z" clip-path="url(#bo)" fill="#aab0c2"/><path transform="matrix(1.3333 0 0 -1.3333 715.97 960.24)" d="m0 0c-0.559 4.869-1.175 9.882-1.815 14.852-0.892 6.918-1.844 8.462-2.794 14.691-1.834 11.699-3.78 21.298-5.627 25.318-2.222 4.873-5.883 7.511-9.699 8.85-5.301 1.851-10.927 1.279-13.696 0.801l0.416-1.902s-3.724-55.353-6.425-89.307c1.073-0.944 2.103-1.669 3.085-2.089 6.55-2.728 36.444-9.445 36.444-9.445s1.874 0.709 4.183-0.549c-0.116 1.259-1.043 11.138-2.446 24.23-0.501 4.531-1.025 9.463-1.626 14.55" clip-path="url(#bn)" fill="#778293"/><path transform="matrix(1.3333 0 0 -1.3333 689.74 985.09)" d="m0 0c-0.672-4.513 1.059-8.511 3.867-8.929 2.808-0.419 5.63 2.901 6.302 7.414 0.673 4.513-1.059 8.51-3.867 8.929-2.808 0.418-5.63-2.901-6.302-7.414" clip-path="url(#bm)" fill="#aab0c2"/><path transform="matrix(1.3333 0 0 -1.3333 654.41 987.17)" d="m0 0s-17.331 30.237-31.486-1.115c0 0 7.25 4.258 14.629 5.863 5.519 1.201 6.365 1.01 16.857-4.748" clip-path="url(#bl)" fill="#566576"/><path transform="matrix(1.3333 0 0 -1.3333 794.66 857.19)" d="m0 0c0.817-11.89-6.079-22.047-15.402-22.688-9.322-0.64-17.542 8.479-18.359 20.369-0.817 11.889 6.079 22.047 15.401 22.687 9.323 0.641 17.543-8.478 18.36-20.368" clip-path="url(#bk)" fill="#080604"/><path transform="matrix(1.3333 0 0 -1.3333 683.3 862.46)" d="m0 0c-1.864-11.771-10.818-20.135-19.999-18.681s-15.112 12.175-13.248 23.946 10.818 20.134 19.998 18.681c9.181-1.454 15.113-12.175 13.249-23.946" clip-path="url(#bj)" fill="#080604"/><path transform="matrix(1.3333 0 0 -1.3333 709.38 798.98)" d="m0 0 19.76 26.004" clip-path="url(#bi)" fill="none" stroke="#080604" stroke-miterlimit="10" stroke-width="2.194"/><path transform="matrix(1.3333 0 0 -1.3333 735.4 765.62)" d="m0 0-6.803 27.124" clip-path="url(#bh)" fill="none" stroke="#566576" stroke-miterlimit="10" stroke-width="2.194"/></g><g><path transform="matrix(1.3333 0 0 -1.3333 478.21 546.43)" d="m0 0c0.023 0.01 0.078 7e-3 0.1 0.017 14.256 3.706 32.789-10.362 42.28-31.933 9.6-21.821 1.917-48.572-11.958-54.677 0 0-12.749-8.851-25.806-7.544l0.013 0.033c4.033 0.045 7.773 1.123 10.97 3.313 12.711 8.754 11.771 32.197-2.097 52.356-13.371 19.46-36.107 28.828-49.108 21.594l-2.509-1.053c4.303 5.186 22.483 15.474 38.115 17.894" clip-path="url(#w)" fill="#566576"/><path transform="matrix(1.3333 0 0 -1.3333 496.21 597.68)" d="m0 0c13.868-20.159 14.807-43.603 2.097-52.356-3.197-2.19-6.938-3.268-10.971-3.314l-9e-3 0.023c-2.627-0.048-5.375 0.364-8.192 1.178l-8.347 3.19c2.845 2.684 5.521 5.077 7.939 7.194l4.925-0.508c2.08 0.186 4.015 0.822 5.677 1.958 3.439 2.377 5.237 6.519 5.464 11.59 0.366 7.213-2.455 16.265-8.231 24.666-3.09 4.503-6.834 8.286-10.756 11.181-8.549 6.289-17.979 8.381-23.686 4.465-5.478-3.761-6.122-12.123-3.106-21.495-2.006-1.828-4.153-3.826-6.395-5.974-5.397 12.512-6.544 24.759-2.248 32.864 1.272 2.451 3.045 4.5 5.348 6.081 0.436 0.3 0.904 0.587 1.382 0.851 13.001 7.233 35.738-2.134 49.109-21.594" clip-path="url(#v)" fill="#778293"/><path transform="matrix(1.3333 0 0 -1.3333 494.07 639.07)" d="m0 0 0.188 2e-3c-0.227-5.072-2.025-9.213-5.464-11.591-1.661-1.136-3.597-1.771-5.677-1.957l-4.925 0.508c1.449 1.313 2.824 2.486 4.096 3.585 7.444 6.356 11.782 9.453 11.782 9.453" clip-path="url(#u)" fill="#080604"/><path transform="matrix(1.3333 0 0 -1.3333 441.6 606.68)" d="m0 0c-1.907-1.623-4-3.435-6.237-5.473-3.016 9.372-2.372 17.733 3.106 21.494 5.462 3.748 14.335 1.993 22.581-3.678 0.37-0.255 0.738-0.517 1.105-0.787l-0.131-0.192c-4.334 1.254-9.003-2.259-9.003-2.259s-4.464-3.18-11.421-9.105" clip-path="url(#t)" fill="#080604"/><path transform="matrix(1.3333 0 0 -1.3333 439.46 710.78)" d="m0 0c6.585 26.966 26.635 43.943 41.151 53.784 0.624 9.203-5.276 26.62-18.986 35.847-2.316 0.354-5.754 0.558-12.329-4.69s-16.896-13.917-20.859-18.314c-3.963-4.398-30.01-32.62-32.079-62.024l32.851-1.986z" clip-path="url(#bg)" fill="#aab0c2"/><path transform="matrix(1.3333 0 0 -1.3333 360.6 808.72)" d="m0 0c-7.238 2.493-9.74 0.649-11.36 18.129-1.621 17.479 7.26 50.139 14.88 64.582 5.767 10.932 20.605 20.331 39.135 15.495 18.53-4.837 25.407-10.754 24.896-21.086-0.512-10.331-4.299-57.243-4.06-65.922 0.24-8.68-8.38-19.311-17.571-18.92-9.19 0.391-45.92 7.722-45.92 7.722" clip-path="url(#bf)" fill="#778293"/><path transform="matrix(1.3333 0 0 -1.3333 428.58 808.31)" d="m0 0c-0.742-7.046-12.367-11.597-25.966-10.164-13.598 1.432-24.02 8.305-23.277 15.351 0.742 7.046 12.367 11.597 25.965 10.165 13.598-1.433 24.02-8.306 23.278-15.352" clip-path="url(#be)" fill="#080604"/><path transform="matrix(1.3333 0 0 -1.3333 417.56 874.6)" d="m0 0-28.741 14.711s-8.781 15.686 2.332 22.592c11.113 6.907 29.774 8.788 34.418 1.76 4.645-7.028 2.701-29.133 2.701-29.133z" clip-path="url(#bd)" fill="#080604"/><path transform="matrix(1.3333 0 0 -1.3333 417.93 808.35)" d="m0 0c-37.781 13.788-49.844 10.636-60.518-6.703-7.537-12.245-5.108-30.233 1.529-34.779l25.448-14.027 1.531 1.762 3.097 38.522s11.553 7.438 12.945 7.868c1.391 0.43 15.968 7.357 15.968 7.357" clip-path="url(#bc)" fill="#aab0c2"/><path transform="matrix(1.3333 0 0 -1.3333 427.42 692.92)" d="m0 0c4.78-3.133 7.074-8.084 5.124-11.058-1.949-2.973-7.404-2.844-12.183 0.289-4.78 3.133-7.074 8.084-5.125 11.057 1.95 2.974 7.405 2.845 12.184-0.288" clip-path="url(#bb)" fill="#566576"/><path transform="matrix(1.3333 0 0 -1.3333 381.11 879.22)" d="m0 0c-11.261 24.553-0.796 49.928 21.492 47.932 18.291-1.639 26.098-20.635 11.139-47.619" clip-path="url(#ba)" fill="none" stroke="#778293" stroke-miterlimit="10" stroke-width="12.637"/><path transform="matrix(1.3333 0 0 -1.3333 404.92 647.56)" d="m0 0c2.058 4.937 8.52 5.681 13.204 5.128 10.825-0.91 29.261-13.027 25.307-25.527-0.915-1.686-1.981-3.026-3.078-4.553 0.537 2.211 1.888 4.337 1.783 6.613-0.952 11.576-27.911 27.839-37.216 18.339" clip-path="url(#ay)" fill="#778293"/><path transform="matrix(1.3333 0 0 -1.3333 435.95 611.68)" d="m0 0c2.799 4.656 9.403 4.446 14.027 3.196 10.743-2.518 27.472-17.425 21.647-29.4-1.169-1.559-2.439-2.747-3.768-4.118 0.868 2.141 2.54 4.078 2.773 6.38 0.758 11.773-23.921 32.109-34.679 23.942" clip-path="url(#ax)" fill="#778293"/><path transform="matrix(1.3333 0 0 -1.3333 387.24 679.07)" d="M 0,0 C 5.14,15.996 15.298,31.947 28.14,42.842 17.932,29.39 8.526,14.607 0,0" clip-path="url(#aw)" fill="#778293"/></g><g><path transform="matrix(1.3333 0 0 -1.3333 836.17 179.56)" d="m0 0c2.682 2.037 5.58 0.557 6.785-1.029l0.393-0.493 14.805 1.943c1.849 0.243 2.546 2.554 1.139 3.779l-15.497 13.49 3.752 20.201c0.341 1.834-1.642 3.211-3.242 2.252l-17.619-10.57-18.052 9.811c-1.639 0.89-3.562-0.57-3.144-2.388l4.609-20.023-14.91-14.137c-1.353-1.284-0.558-3.564 1.3-3.727l20.467-1.805 8.838-18.548c0.802-1.684 3.216-1.633 3.946 0.084l5.916 13.912-0.315 0.436c-1.204 1.586-1.853 4.775 0.829 6.812" clip-path="url(#av)" fill="#fcd006"/><path transform="matrix(1.3333 0 0 -1.3333 923.86 296.34)" d="m0 0 0.701 0.532c1.446 1.099 4.015 2.574 6.432 3.126l-7.655 9.597c-0.021-0.02-0.04-0.039-0.061-0.058l-5.737 7.255 0.032 0.032-5.652 7.087c-1.687-0.991-3.469-2.168-5.328-3.58-1.97-1.496-3.661-2.98-5.125-4.414l17.81-24.653c1.203 2.076 3.199 4.025 4.583 5.076" clip-path="url(#au)" fill="#778293"/><path transform="matrix(1.3333 0 0 -1.3333 874.99 218.26)" d="m0 0-2.001 2.51c-0.02-0.018-0.036-0.036-0.055-0.054l-4.131 5.212c0.014 0.014 0.025 0.027 0.039 0.04l-4.22 5.291c-1.334-0.772-2.75-1.697-4.231-2.822-1.586-1.204-2.934-2.399-4.087-3.548l9.73-13.469c1.339 1.229 2.818 2.47 4.46 3.717 1.542 1.172 3.041 2.205 4.496 3.123" clip-path="url(#at)" fill="#778293"/><path transform="matrix(1.3333 0 0 -1.3333 853.42 191.22)" d="m0 0-5.757 7.218-0.394 0.493c-1.204 1.586-4.102 3.067-6.784 1.029-2.682-2.037-2.034-5.226-0.829-6.812l0.315-0.436 5.478-7.583c1.188 1.098 2.507 2.208 3.976 3.324 1.372 1.042 2.703 1.957 3.995 2.767" clip-path="url(#as)" fill="#778293"/><path transform="matrix(1.3333 0 0 -1.3333 898.03 247.15)" d="m0 0-0.856 1.074c-0.014-0.013-0.026-0.026-0.04-0.039l-4.879 6.202s1e-3 1e-3 2e-3 1e-3l-4.914 6.161c-1.505-0.878-3.098-1.924-4.762-3.188-1.771-1.346-3.285-2.68-4.588-3.967l10.029-13.884c1.5 1.368 3.149 2.749 4.976 4.137 1.725 1.31 3.402 2.47 5.032 3.503" clip-path="url(#ar)" fill="#778293"/><path transform="matrix(1.3333 0 0 -1.3333 883.78 229.28)" d="m0 0c5.677 3.312 10.022 4.084 11.484 3.772-0.091-1.485-1.899-5.376-6.57-9.933-1e-3 0-1e-3 -1e-3 -2e-3 -1e-3l4.879-6.202c0.014 0.013 0.026 0.026 0.04 0.039 10.258 9.514 11.69 18.228 8.247 22.761-3.493 4.599-12.483 5.512-24.668-2.174-1.456-0.918-2.954-1.95-4.497-3.122-1.642-1.248-3.12-2.489-4.459-3.717-10.451-9.591-11.932-18.394-8.466-22.958 3.408-4.487 12.046-5.473 23.781 1.619l-4.599 6.429c-5.438-3.077-9.574-3.786-10.994-3.483 0.09 1.466 1.938 5.335 6.474 9.815 1.304 1.287 2.817 2.621 4.589 3.967 1.663 1.264 3.256 2.31 4.761 3.188" clip-path="url(#aq)" fill="#fcd006"/><path transform="matrix(1.3333 0 0 -1.3333 907.94 259.58)" d="m0 0c6.577 3.866 11.618 4.764 13.306 4.403-0.105-1.706-2.274-6.251-7.653-11.49-0.012-0.011-0.022-0.021-0.033-0.032l5.737-7.255c0.021 0.02 0.041 0.039 0.062 0.058 11.864 10.952 13.529 20.993 9.568 26.208-4.019 5.292-14.381 6.331-28.422-2.57-1.63-1.033-3.307-2.193-5.032-3.503-1.827-1.388-3.476-2.769-4.976-4.137-12.112-11.05-13.841-21.206-9.849-26.461 3.931-5.175 13.928-6.29 27.504 1.995l-5.43 7.499c-6.331-3.621-11.154-4.455-12.799-4.103 0.104 1.696 2.259 6.197 7.565 11.394 1.464 1.434 3.154 2.918 5.124 4.414 1.859 1.412 3.641 2.589 5.328 3.58" clip-path="url(#ap)" fill="#fcd006"/><path transform="matrix(1.3333 0 0 -1.3333 861.17 200.93)" d="m0 0c4.85 2.806 8.558 3.462 9.811 3.194-0.078-1.267-1.667-4.611-5.591-8.485-0.014-0.013-0.025-0.026-0.039-0.04l4.131-5.212c0.019 0.018 0.036 0.036 0.055 0.053 8.78 8.189 10 15.682 7.035 19.586-3.009 3.961-10.736 4.758-21.213-1.81-1.292-0.81-2.623-1.725-3.995-2.767-1.469-1.116-2.788-2.226-3.976-3.324-8.924-8.246-10.178-15.805-7.196-19.732 2.936-3.865 10.36-4.724 20.449 1.335l-3.88 5.411c-4.642-2.602-8.167-3.203-9.383-2.943 0.077 1.254 1.64 4.542 5.474 8.364 1.153 1.149 2.501 2.344 4.088 3.548 1.48 1.125 2.896 2.05 4.23 2.822" clip-path="url(#ao)" fill="#fcd006"/><path transform="matrix(1.3333 0 0 -1.3333 942.01 344.09)" d="m0 0c4.536 6.145 10.604 11.281 17.683 13.926-12.58 15.016-21.527 25.702-21.527 25.702-0.808 0.134-1.711 0.054-2.635-0.157-2.417-0.552-4.986-2.028-6.432-3.127l-0.701-0.532c-1.384-1.051-3.38-3-4.583-5.076-0.536-0.924-0.915-1.872-1.013-2.778 0 0 8.002-11.641 19.208-27.958" clip-path="url(#an)" fill="#aab0c2"/><path transform="matrix(1.3333 0 0 -1.3333 1071.1 451.14)" d="m0 0c-5.05 5.852-30.594 36.272-54.688 65.007-7.364-5.297-14.597-12.865-17.196-21.088 20.086-29.277 40.293-58.777 44.332-64.847 8.496-12.766 19.599-13.942 26.836-8.445l1.653 1.255c7.236 5.497 9.082 16.509-0.937 28.118" clip-path="url(#am)" fill="#aab0c2"/></g></g></svg>
